<svg width="158" height="69" viewBox="0 0 158 69" fill="none" xmlns="http://www.w3.org/2000/svg">
<rect x="0.5" y="0.5" width="59.353" height="67.2941" rx="2.5" stroke="white"/>
<path d="M13.8704 54V42.4492H20.7964V43.69H15.2691V47.5929H20.2775V48.8337H15.2691V54H13.8704Z" fill="white"/>
<path d="M32.3514 42.4492V54H30.9978L24.7035 44.9308H24.5907V54H23.192V42.4492H24.5456L30.8625 51.541H30.9753V42.4492H32.3514Z" fill="white"/>
<path d="M35.1503 42.4492H36.8197L40.7452 52.0373H40.8806L44.806 42.4492H46.4755V54H45.167V45.2241H45.0542L41.4446 54H40.1812L36.5716 45.2241H36.4588V54H35.1503V42.4492Z" fill="white"/>
<path d="M68.5955 54H67.1291L71.3704 42.4492H72.8142L77.0555 54H75.5891L72.1374 44.2766H72.0472L68.5955 54ZM69.1369 49.488H75.0477V50.7288H69.1369V49.488Z" fill="white"/>
<path d="M78.6742 54V45.3369H79.9601V46.6454H80.0504C80.2083 46.2168 80.4941 45.869 80.9077 45.602C81.3213 45.335 81.7875 45.2016 82.3064 45.2016C82.4042 45.2016 82.5264 45.2034 82.673 45.2072C82.8196 45.211 82.9306 45.2166 83.0058 45.2241V46.5777C82.9607 46.5664 82.8572 46.5495 82.6956 46.527C82.5376 46.5006 82.3703 46.4875 82.1936 46.4875C81.7725 46.4875 81.3965 46.5758 81.0656 46.7526C80.7385 46.9255 80.479 47.1662 80.2873 47.4745C80.0993 47.7791 80.0053 48.1269 80.0053 48.5179V54H78.6742Z" fill="white"/>
<path d="M87.8393 54.1805C87.0271 54.1805 86.3278 53.9887 85.7412 53.6052C85.1546 53.2217 84.7034 52.6934 84.3876 52.0204C84.0717 51.3473 83.9138 50.5784 83.9138 49.7136C83.9138 48.8337 84.0755 48.0573 84.3989 47.3842C84.726 46.7074 85.1809 46.1792 85.7638 45.7994C86.3503 45.4159 87.0346 45.2241 87.8167 45.2241C88.4258 45.2241 88.9748 45.3369 89.4636 45.5625C89.9524 45.7881 90.3529 46.104 90.6649 46.51C90.977 46.9161 91.1707 47.3899 91.2459 47.9313H89.9148C89.8133 47.5365 89.5877 47.1868 89.238 46.8823C88.8921 46.574 88.4259 46.4198 87.8393 46.4198C87.3204 46.4198 86.8654 46.5552 86.4744 46.8259C86.0871 47.0928 85.7844 47.4707 85.5663 47.9595C85.352 48.4446 85.2449 49.0142 85.2449 49.6685C85.2449 50.3378 85.3501 50.9206 85.5607 51.4169C85.775 51.9132 86.0758 52.2986 86.4631 52.5731C86.8542 52.8476 87.3129 52.9848 87.8393 52.9848C88.1852 52.9848 88.4992 52.9246 88.7812 52.8043C89.0632 52.684 89.3019 52.511 89.4975 52.2854C89.693 52.0598 89.8321 51.7891 89.9148 51.4733H91.2459C91.1707 51.9846 90.9845 52.4452 90.6875 52.8551C90.3942 53.2612 90.0051 53.5845 89.52 53.8252C89.0387 54.0621 88.4785 54.1805 87.8393 54.1805Z" fill="white"/>
<path d="M94.5227 48.7886V54H93.1917V42.4492H94.5227V46.6905H94.6355C94.8386 46.2431 95.1431 45.8878 95.5492 45.6246C95.9591 45.3576 96.5043 45.2241 97.1848 45.2241C97.7752 45.2241 98.2922 45.3426 98.7358 45.5794C99.1795 45.8126 99.5236 46.1716 99.768 46.6567C100.016 47.138 100.14 47.7509 100.14 48.4953V54H98.8092V48.5856C98.8092 47.8975 98.6306 47.3654 98.2734 46.9894C97.9199 46.6097 97.4292 46.4198 96.8013 46.4198C96.3651 46.4198 95.9741 46.5119 95.6282 46.6962C95.286 46.8804 95.0153 47.1492 94.816 47.5027C94.6205 47.8561 94.5227 48.2848 94.5227 48.7886Z" fill="white"/>
<path d="M102.575 54V45.3369H103.906V54H102.575ZM103.252 43.8931C102.993 43.8931 102.769 43.8047 102.581 43.628C102.397 43.4513 102.305 43.2388 102.305 42.9907C102.305 42.7425 102.397 42.5301 102.581 42.3533C102.769 42.1766 102.993 42.0882 103.252 42.0882C103.512 42.0882 103.733 42.1766 103.918 42.3533C104.106 42.5301 104.2 42.7425 104.2 42.9907C104.2 43.2388 104.106 43.4513 103.918 43.628C103.733 43.8047 103.512 43.8931 103.252 43.8931Z" fill="white"/>
<path d="M110.112 45.3369V46.4649H105.622V45.3369H110.112ZM106.931 43.2614H108.262V51.5184C108.262 51.8944 108.316 52.1764 108.425 52.3644C108.538 52.5486 108.681 52.6727 108.854 52.7366C109.031 52.7968 109.217 52.8269 109.412 52.8269C109.559 52.8269 109.679 52.8194 109.773 52.8043C109.867 52.7855 109.943 52.7705 109.999 52.7592L110.27 53.9549C110.179 53.9887 110.054 54.0226 109.892 54.0564C109.73 54.094 109.525 54.1128 109.277 54.1128C108.901 54.1128 108.533 54.032 108.172 53.8703C107.814 53.7086 107.517 53.4623 107.281 53.1315C107.047 52.8006 106.931 52.3832 106.931 51.8794V43.2614Z" fill="white"/>
<path d="M115.653 54.1805C114.818 54.1805 114.098 53.9963 113.493 53.6278C112.891 53.2555 112.427 52.7366 112.1 52.0711C111.777 51.4018 111.615 50.6235 111.615 49.7361C111.615 48.8488 111.777 48.0667 112.1 47.3899C112.427 46.7093 112.882 46.1792 113.465 45.7994C114.051 45.4159 114.736 45.2241 115.518 45.2241C115.969 45.2241 116.415 45.2993 116.854 45.4497C117.294 45.6001 117.695 45.8445 118.056 46.1829C118.417 46.5176 118.704 46.9612 118.919 47.514C119.133 48.0667 119.24 48.7473 119.24 49.5557V50.1197H112.562V48.9691H117.887C117.887 48.4803 117.789 48.0441 117.593 47.6606C117.402 47.2771 117.127 46.9744 116.77 46.7526C116.416 46.5307 115.999 46.4198 115.518 46.4198C114.988 46.4198 114.529 46.5514 114.142 46.8146C113.758 47.074 113.463 47.4124 113.256 47.8298C113.049 48.2472 112.946 48.6946 112.946 49.1721V49.9392C112.946 50.5934 113.059 51.148 113.284 51.603C113.514 52.0542 113.831 52.3982 114.238 52.6351C114.644 52.8682 115.115 52.9848 115.653 52.9848C116.003 52.9848 116.319 52.9359 116.601 52.8382C116.886 52.7366 117.133 52.5862 117.34 52.387C117.546 52.1839 117.706 51.932 117.819 51.6312L119.105 51.9922C118.969 52.4283 118.742 52.8118 118.422 53.1427C118.103 53.4699 117.708 53.7255 117.238 53.9098C116.768 54.0903 116.24 54.1805 115.653 54.1805Z" fill="white"/>
<path d="M124.784 54.1805C123.972 54.1805 123.273 53.9887 122.686 53.6052C122.1 53.2217 121.649 52.6934 121.333 52.0204C121.017 51.3473 120.859 50.5784 120.859 49.7136C120.859 48.8337 121.021 48.0573 121.344 47.3842C121.671 46.7074 122.126 46.1792 122.709 45.7994C123.295 45.4159 123.98 45.2241 124.762 45.2241C125.371 45.2241 125.92 45.3369 126.409 45.5625C126.898 45.7881 127.298 46.104 127.61 46.51C127.922 46.9161 128.116 47.3899 128.191 47.9313H126.86C126.758 47.5365 126.533 47.1868 126.183 46.8823C125.837 46.574 125.371 46.4198 124.784 46.4198C124.265 46.4198 123.811 46.5552 123.419 46.8259C123.032 47.0928 122.73 47.4707 122.511 47.9595C122.297 48.4446 122.19 49.0142 122.19 49.6685C122.19 50.3378 122.295 50.9206 122.506 51.4169C122.72 51.9132 123.021 52.2986 123.408 52.5731C123.799 52.8476 124.258 52.9848 124.784 52.9848C125.13 52.9848 125.444 52.9246 125.726 52.8043C126.008 52.684 126.247 52.511 126.443 52.2854C126.638 52.0598 126.777 51.7891 126.86 51.4733H128.191C128.116 51.9846 127.93 52.4452 127.633 52.8551C127.339 53.2612 126.95 53.5845 126.465 53.8252C125.984 54.0621 125.424 54.1805 124.784 54.1805Z" fill="white"/>
<path d="M133.904 45.3369V46.4649H129.415V45.3369H133.904ZM130.723 43.2614H132.054V51.5184C132.054 51.8944 132.109 52.1764 132.218 52.3644C132.331 52.5486 132.474 52.6727 132.647 52.7366C132.823 52.7968 133.009 52.8269 133.205 52.8269C133.352 52.8269 133.472 52.8194 133.566 52.8043C133.66 52.7855 133.735 52.7705 133.792 52.7592L134.062 53.9549C133.972 53.9887 133.846 54.0226 133.684 54.0564C133.523 54.094 133.318 54.1128 133.07 54.1128C132.694 54.1128 132.325 54.032 131.964 53.8703C131.607 53.7086 131.31 53.4623 131.073 53.1315C130.84 52.8006 130.723 52.3832 130.723 51.8794V43.2614Z" fill="white"/>
<path d="M141.366 50.4581V45.3369H142.697V54H141.366V52.5336H141.276C141.073 52.9735 140.757 53.3477 140.328 53.656C139.9 53.9605 139.358 54.1128 138.704 54.1128C138.163 54.1128 137.681 53.9944 137.26 53.7575C136.839 53.5169 136.508 53.1559 136.268 52.6746C136.027 52.1896 135.907 51.5786 135.907 50.8416V45.3369H137.238V50.7514C137.238 51.383 137.414 51.8869 137.768 52.2629C138.125 52.6389 138.58 52.8269 139.133 52.8269C139.464 52.8269 139.8 52.7423 140.142 52.5731C140.488 52.4039 140.778 52.1444 141.011 51.7948C141.248 51.4451 141.366 50.9995 141.366 50.4581Z" fill="white"/>
<path d="M145.135 54V45.3369H146.421V46.6454H146.511C146.669 46.2168 146.955 45.869 147.369 45.602C147.782 45.335 148.248 45.2016 148.767 45.2016C148.865 45.2016 148.987 45.2034 149.134 45.2072C149.28 45.211 149.391 45.2166 149.467 45.2241V46.5777C149.421 46.5664 149.318 46.5495 149.156 46.527C148.998 46.5006 148.831 46.4875 148.654 46.4875C148.233 46.4875 147.857 46.5758 147.526 46.7526C147.199 46.9255 146.94 47.1662 146.748 47.4745C146.56 47.7791 146.466 48.1269 146.466 48.5179V54H145.135Z" fill="white"/>
<path d="M154.413 54.1805C153.578 54.1805 152.858 53.9963 152.253 53.6278C151.651 53.2555 151.187 52.7366 150.86 52.0711C150.536 51.4018 150.375 50.6235 150.375 49.7361C150.375 48.8488 150.536 48.0667 150.86 47.3899C151.187 46.7093 151.642 46.1792 152.225 45.7994C152.811 45.4159 153.495 45.2241 154.278 45.2241C154.729 45.2241 155.174 45.2993 155.614 45.4497C156.054 45.6001 156.455 45.8445 156.816 46.1829C157.177 46.5176 157.464 46.9612 157.679 47.514C157.893 48.0667 158 48.7473 158 49.5557V50.1197H151.322V48.9691H156.646C156.646 48.4803 156.549 48.0441 156.353 47.6606C156.161 47.2771 155.887 46.9744 155.53 46.7526C155.176 46.5307 154.759 46.4198 154.278 46.4198C153.747 46.4198 153.289 46.5514 152.901 46.8146C152.518 47.074 152.223 47.4124 152.016 47.8298C151.809 48.2472 151.706 48.6946 151.706 49.1721V49.9392C151.706 50.5934 151.819 51.148 152.044 51.603C152.273 52.0542 152.591 52.3982 152.997 52.6351C153.403 52.8682 153.875 52.9848 154.413 52.9848C154.763 52.9848 155.078 52.9359 155.36 52.8382C155.646 52.7366 155.893 52.5862 156.099 52.387C156.306 52.1839 156.466 51.932 156.579 51.6312L157.865 51.9922C157.729 52.4283 157.502 52.8118 157.182 53.1427C156.863 53.4699 156.468 53.7255 155.998 53.9098C155.528 54.0903 154.999 54.1805 154.413 54.1805Z" fill="white"/>
</svg>
